<?xml version="1.0" encoding="UTF-8"?>
<svg width="12px" height="21px" viewBox="0 0 12 21" version="1.1" xmlns="http://www.w3.org/2000/svg" xmlns:xlink="http://www.w3.org/1999/xlink">
    <title> copy</title>
    <g id="Symbols" stroke="none" stroke-width="1" fill="none" fill-rule="evenodd">
        <g id="page-cta" transform="translate(-25.000000, -21.000000)" fill="#FFFFFF" fill-rule="nonzero">
            <path d="M21,26.6515301 C21,26.5725564 21.0164526,26.4902933 21.0493583,26.4047384 C21.0822641,26.3191835 21.1316219,26.2435015 21.1974334,26.17769 C21.3290563,26.0592294 21.4870014,26 21.6712734,26 C21.8555455,26 22.0134906,26.0592294 22.1451135,26.17769 L31.0691017,35.1016782 L39.8548865,26.3158934 C39.9865094,26.1842705 40.1444545,26.11846 40.3287266,26.11846 C40.5129986,26.11846 40.6709437,26.1842705 40.8025666,26.3158934 C40.9341895,26.4475163 41,26.6054614 41,26.7897335 C41,26.9740055 40.9341895,27.1319506 40.8025666,27.2635735 L31.5429418,36.5231984 C31.4113189,36.6548213 31.2533737,36.7206318 31.0691017,36.7206318 C30.8848296,36.7206318 30.7268845,36.6548213 30.5952616,36.5231984 L21.1974334,27.1451135 C21.1316219,27.0793021 21.0822641,27.00362 21.0493583,26.9180652 C21.0164526,26.8325103 21,26.7436661 21,26.6515301 Z" id="-copy" transform="translate(31.000000, 31.360316) rotate(-90.000000) translate(-31.000000, -31.360316) "></path>
        </g>
    </g>
</svg>