<?xml version="1.0" encoding="UTF-8"?>
<svg width="28px" height="28px" viewBox="0 0 28 28" version="1.1" xmlns="http://www.w3.org/2000/svg" xmlns:xlink="http://www.w3.org/1999/xlink">
    <title></title>
    <g id="-" stroke="none" stroke-width="1" fill="none" fill-rule="evenodd">
        <g id="Footer" transform="translate(-750.000000, -70.000000)" fill="#006B87" fill-rule="nonzero">
            <g id="Stacked-Group" transform="translate(481.000000, 60.000000)">
                <g transform="translate(269.000000, 8.000000)" id="">
                    <path d="M14.9479167,30 L14.9479167,19.1536458 L11.3020833,19.1536458 L11.3020833,14.9244792 L14.9479167,14.9244792 L14.9479167,11.8072917 C14.9479167,8.19791667 17.171875,6.22916667 20.3984375,6.22916667 C21.9296875,6.22916667 23.2604167,6.33854167 23.6432292,6.39322917 L23.6432292,10.1666667 L21.4192708,10.1848958 C19.6510417,10.1848958 19.3229167,11.0052083 19.3229167,12.2265625 L19.3229167,14.9244792 L23.4973958,14.9244792 L22.9505208,19.1536458 L19.3229167,19.1536458 L19.3229167,30 L26.4505208,30 C27.3072917,30 28,29.3072917 28,28.4505208 L28,3.54947917 C28,2.69270833 27.3072917,2 26.4505208,2 L1.54947917,2 C0.692708333,2 0,2.69270833 0,3.54947917 L0,28.4505208 C0,29.3072917 0.692708333,30 1.54947917,30 L14.9479167,30 Z"></path>
                </g>
            </g>
        </g>
    </g>
</svg>