<?xml version="1.0" encoding="UTF-8"?>
<svg width="28px" height="28px" viewBox="0 0 28 28" version="1.1" xmlns="http://www.w3.org/2000/svg" xmlns:xlink="http://www.w3.org/1999/xlink">
    <title></title>
    <g id="-" stroke="none" stroke-width="1" fill="none" fill-rule="evenodd">
        <g id="Footer" transform="translate(-838.000000, -70.000000)" fill="#006B87" fill-rule="nonzero">
            <g id="Stacked-Group" transform="translate(481.000000, 60.000000)">
                <g transform="translate(269.000000, 8.000000)" id="">
                    <path d="M107.778176,29.9077224 C110.020181,29.7983563 112.006998,29.2879811 113.64749,27.6474896 C115.287981,26.0069981 115.798356,24.0201806 115.907722,21.7781756 C116.017088,19.8460412 115.998861,17.9321344 115.998861,16 C115.998861,14.0678656 116.017088,12.1539588 115.907722,10.2218244 C115.798356,7.97981935 115.287981,5.99300187 113.64749,4.35251038 C112.006998,2.71201888 110.020181,2.20164375 107.778176,2.09227765 C105.846041,1.98291155 103.932134,2.00113923 102,2.00113923 C100.067866,2.00113923 98.1539588,1.98291155 96.2218244,2.09227765 C93.9798194,2.20164375 91.9930019,2.71201888 90.3525104,4.35251038 C88.7120189,5.99300187 88.2016437,7.97981935 88.0922776,10.2218244 C88.0102531,11.6709252 88,13.109773 88,14.5537473 L88.0011392,16 C88.0011392,17.9321344 87.9829115,19.8460412 88.0922776,21.7781756 C88.2016437,24.0201806 88.7120189,26.0069981 90.3525104,27.6474896 C91.9930019,29.2879811 93.9798194,29.7983563 96.2218244,29.9077224 C98.1539588,30.0170885 100.067866,29.9988608 102,29.9988608 C103.932134,29.9988608 105.846041,30.0170885 107.778176,29.9077224 Z M93.7428595,26.9183823 C93.1048906,26.6631947 92.6309708,26.3533241 92.1388233,25.8611767 C91.6466759,25.3690292 91.3368053,24.8951094 91.0816177,24.2571405 C90.3525104,22.4161445 90.5165595,18.0415005 90.5165595,16 C90.5165595,13.9584995 90.3525104,9.58385548 91.0816177,7.74285947 C91.3368053,7.10489055 91.6466759,6.63097079 92.1388233,6.13882334 C92.6309708,5.64667589 93.1048906,5.33680527 93.7428595,5.08161771 C95.5838555,4.35251038 99.9584995,4.51655952 102,4.51655952 C104.041501,4.51655952 108.416145,4.35251038 110.257141,5.08161771 C110.895109,5.33680527 111.369029,5.64667589 111.861177,6.13882334 C112.353324,6.63097079 112.663195,7.10489055 112.918382,7.74285947 C113.64749,9.58385548 113.48344,13.9584995 113.48344,16 C113.48344,18.0415005 113.64749,22.4161445 112.918382,24.2571405 C112.663195,24.8951094 112.353324,25.3690292 111.861177,25.8611767 C111.369029,26.3533241 110.895109,26.6631947 110.257141,26.9183823 C108.416145,27.6474896 104.041501,27.4834405 102,27.4834405 C99.9584995,27.4834405 95.5838555,27.6474896 93.7428595,26.9183823 Z M109.47335,10.2035967 C110.402962,10.2035967 111.150297,9.4562617 111.150297,8.52664985 C111.150297,7.597038 110.402962,6.84970299 109.47335,6.84970299 C108.543738,6.84970299 107.796403,7.597038 107.796403,8.52664985 C107.796403,9.4562617 108.543738,10.2035967 109.47335,10.2035967 Z M102,23.1817072 C105.973635,23.1817072 109.181707,19.973635 109.181707,16 C109.181707,12.026365 105.973635,8.81829278 102,8.81829278 C98.026365,8.81829278 94.8182928,12.026365 94.8182928,16 C94.8182928,19.973635 98.026365,23.1817072 102,23.1817072 Z M102,20.6662869 C99.4298967,20.6662869 97.3337131,18.5701033 97.3337131,16 C97.3337131,13.4298967 99.4298967,11.3337131 102,11.3337131 C104.570103,11.3337131 106.666287,13.4298967 106.666287,16 C106.666287,18.5701033 104.570103,20.6662869 102,20.6662869 Z"></path>
                </g>
            </g>
        </g>
    </g>
</svg>